HIERARCHY
ROOT Hips
{
	OFFSET -0.179506 -22.333345 2.821913
	CHANNELS 6 Xposition Yposition Zposition Zrotation Yrotation Xrotation 
	JOINT LeftUpLeg
	{
		OFFSET 6.951974 -9.140623 -0.681533
		CHANNELS 3 Zrotation Yrotation Xrotation
		JOINT LeftLeg
		{
			OFFSET 3.427654 -37.519855 -0.449580
			CHANNELS 3 Zrotation Yrotation Xrotation
			JOINT LeftFoot
			{
				OFFSET -1.359570 -39.796059 -4.369333
				CHANNELS 3 Zrotation Yrotation Xrotation
				JOINT LeftToe
				{
					OFFSET 2.635814 -5.579078 11.928840
					CHANNELS 3 Zrotation Yrotation Xrotation
					End Site
					{
						OFFSET 0.000000 0.000000 0.000000
					}
				}
			}
		}
	}
	JOINT RightUpLeg
	{
		OFFSET -6.767048 -9.052170 -0.431982
		CHANNELS 3 Zrotation Yrotation Xrotation
		JOINT RightLeg
		{
			OFFSET -3.829005 -38.256897 -0.885003
			CHANNELS 3 Zrotation Yrotation Xrotation
			JOINT RightFoot
			{
				OFFSET 1.577377 -39.841461 -4.231180
				CHANNELS 3 Zrotation Yrotation Xrotation
				JOINT RightToe
				{
					OFFSET -2.537174 -4.814398 12.334795
					CHANNELS 3 Zrotation Yrotation Xrotation
					End Site
					{
						OFFSET 0.000000 0.000000 0.000000
					}
				}
			}
		}
	}
	JOINT Spine
	{
		OFFSET -0.253288 10.896323 -2.669631
		CHANNELS 3 Zrotation Yrotation Xrotation
		JOINT Spine1
		{
			OFFSET 0.548704 13.518043 0.109247
			CHANNELS 3 Zrotation Yrotation Xrotation
			JOINT Spine2
			{
				OFFSET 0.145701 5.292222 2.542457
				CHANNELS 3 Zrotation Yrotation Xrotation
				JOINT Neck
				{
					OFFSET -0.277840 21.387037 -4.285703
					CHANNELS 3 Zrotation Yrotation Xrotation
					JOINT Head
					{
						OFFSET 0.515184 6.496960 5.134897
						CHANNELS 3 Zrotation Yrotation Xrotation
						End Site
						{
							OFFSET 0.000000 0.000000 0.000000
						}
					}
				}
				JOINT LeftShoulder
				{
					OFFSET 7.884473 12.174932 -3.408961
					CHANNELS 3 Zrotation Yrotation Xrotation
					JOINT LeftArm
					{
						OFFSET 9.097692 3.046888 -0.886815
						CHANNELS 3 Zrotation Yrotation Xrotation
						JOINT LeftForeArm
						{
							OFFSET 25.961220 -1.277207 -2.745643
							CHANNELS 3 Zrotation Yrotation Xrotation
							JOINT LeftHand
							{
								OFFSET 24.923361 0.898606 -0.117091
								CHANNELS 3 Zrotation Yrotation Xrotation
								End Site
								{
									OFFSET 0.000000 0.000000 0.000000
								}
							}
						}
					}
				}
				JOINT RightShoulder
				{
					OFFSET -8.175920 11.883285 -3.861528
					CHANNELS 3 Zrotation Yrotation Xrotation
					JOINT RightArm
					{
						OFFSET -9.601238 3.255117 -0.914307
						CHANNELS 3 Zrotation Yrotation Xrotation
						JOINT RightForeArm
						{
							OFFSET -25.374195 -1.332924 -2.140099
							CHANNELS 3 Zrotation Yrotation Xrotation
							JOINT RightHand
							{
								OFFSET -25.529810 0.777228 -0.555919
								CHANNELS 3 Zrotation Yrotation Xrotation
								End Site
								{
									OFFSET 0.000000 0.000000 0.000000
								}
							}
						}
					}
				}
			}
		}
	}
}
MOTION
Frames: 17
Frame Time: 0.033333
326.799225 -285.959930 83.577843 -110.460284 -3.568685 102.424955 -1.615079 -2.434968 -5.126108 -28.552706 -29.610221 38.841780 5.896320 22.808699 -34.528329 nan nan nan -6.254302 -0.706550 -48.139038 12.760707 -13.347871 116.374726 2.773785 -20.610396 -42.648372 nan nan nan -2.777335 -11.638742 29.658193 -0.303529 -11.792267 -29.661462 2.902342 -6.192135 15.210294 -16.748135 -13.460871 -5.204051 31.591676 16.280189 -21.243033 -15.630849 -51.417681 -1.018856 -8.414604 -14.712593 7.923757 140.190402 -39.177290 -117.276730 -65.559280 5.417996 26.884911 -1.208858 17.074696 -18.299047 5.039381 -45.545298 -2.112311 73.456606 -18.652856 27.509100 87.180167 10.368338 18.172263 
324.134766 -283.669067 83.876312 -110.734408 -2.793190 103.078870 -0.412829 -1.560860 -1.653666 -26.922111 -33.114201 35.616768 4.506366 23.555193 -32.967032 nan nan nan -6.798693 0.316674 -52.841755 13.600886 -12.993905 115.252376 3.127213 -20.443903 -44.329046 nan nan nan -2.429494 -13.588745 29.259376 0.425837 -11.448145 -30.962062 3.224300 -6.652612 16.315646 -17.561459 -11.988886 -5.326299 31.177315 17.714567 -22.259620 -10.570408 -51.239632 -3.191147 -5.788262 -13.366465 7.565130 139.815255 -37.705483 -116.571307 -63.981705 1.750082 24.331775 -4.213903 16.043878 -18.796269 1.947023 -46.183716 -0.562708 74.741858 -20.713956 30.664508 85.462718 11.786503 18.654898 
321.344177 -281.261292 84.350761 -110.728907 -2.019717 103.751840 0.867685 -1.255021 1.643474 -24.779032 -36.000569 32.320933 3.041444 24.003642 -31.377687 nan nan nan -7.874089 0.903414 -56.983888 13.879706 -12.671256 113.408237 3.513724 -19.759017 -45.746776 nan nan nan -2.020743 -15.074773 28.355217 1.157524 -11.053143 -32.114501 3.654050 -7.042727 17.424751 -18.693391 -10.843763 -4.519313 30.937830 19.063015 -22.759915 -6.865458 -51.511582 -4.272778 -4.509211 -12.114532 9.214099 138.859182 -35.153482 -116.054066 -66.067503 -2.980881 21.631222 -6.421767 15.096318 -19.270144 -1.743668 -48.048785 1.565254 75.418098 -19.858205 39.287410 86.526221 10.441126 22.068631 
318.736176 -278.787781 84.905067 -111.389060 -1.185047 104.654515 2.013550 -0.837353 4.590376 -21.556236 -37.643736 28.090562 1.551065 24.320316 -29.345147 nan nan nan -8.862090 2.145183 -62.295460 14.210322 -12.086920 110.992488 3.587897 -18.571116 -45.068106 nan nan nan -1.675824 -16.388936 27.046665 1.770454 -10.499592 -31.913993 3.919297 -7.393595 17.721955 -19.261680 -9.057900 -4.898661 30.749290 19.709821 -23.223247 -3.814929 -50.956355 -5.102725 -2.450128 -10.630907 10.459065 138.383329 -33.680100 -115.264142 -66.375639 -10.265197 18.709374 -7.952621 14.076518 -19.096695 -4.797804 -49.539072 3.463249 76.483582 -17.667744 41.312781 86.054359 15.033185 22.474556 
315.562195 -276.536804 85.808975 -110.780482 -0.657002 104.170289 2.807304 -0.540903 9.192270 -17.239810 -40.013333 23.736435 -0.596137 23.979941 -26.173508 nan nan nan -10.042973 1.661765 -63.029459 14.760394 -11.177094 107.564291 3.771853 -16.283006 -48.304618 nan nan nan 0.124115 -17.837605 26.360330 1.647694 -11.227326 -31.414031 4.043830 -8.691605 17.857141 -20.327208 -6.434731 -4.567962 29.383844 20.137042 -25.076174 -3.158332 -51.832068 -4.831416 1.993271 -4.491589 5.914732 144.263552 -38.434336 -118.726612 -47.116359 -16.211486 27.886153 -9.405793 15.555540 -18.171033 -8.989850 -53.035232 4.998164 77.894946 -17.298513 50.275465 73.018110 20.080929 40.250823 
312.524506 -273.991272 86.534088 -110.993458 0.365406 104.595546 3.969999 -0.413180 12.659358 -12.986700 -41.325319 19.100245 -2.151164 24.790069 -22.511881 nan nan nan -10.341029 2.143781 -65.328201 15.761015 -10.401687 103.622216 3.820076 -14.841069 -48.075027 nan nan nan 1.165432 -18.944676 24.757274 2.119875 -10.870001 -31.464653 4.429630 -9.026456 18.452072 -21.757191 -5.077311 -3.643191 28.550188 20.535841 -25.577169 -1.091501 -52.201738 -4.696117 2.852345 -1.968221 4.752568 145.737595 -39.500072 -119.285529 -42.213562 -20.048974 26.681894 -10.677390 15.712979 -17.187126 -12.477360 -54.816770 6.612748 78.889584 -17.763420 56.690845 68.685099 21.814422 47.607915 
309.521606 -271.380371 87.288284 -111.484715 1.249238 104.913649 4.761305 -0.743515 16.022269 -8.101290 -40.514198 13.989980 -3.446963 24.447128 -18.174230 nan nan nan -11.904381 3.277290 -66.447962 12.871186 -8.249842 96.553683 7.660247 -13.459564 -30.075915 nan nan nan 1.453382 -19.986687 23.463344 3.182496 -10.215705 -31.818426 4.401090 -9.023735 19.573317 -22.231893 -2.631976 -3.146782 27.192604 19.845526 -26.620669 1.990219 -51.908633 -5.573683 2.849556 -0.084420 4.409810 147.154786 -41.793404 -119.389098 -32.288404 -28.509931 20.311575 -11.369490 15.031393 -15.865400 -15.016079 -56.889596 8.082960 79.963483 -15.618065 63.814655 60.400814 28.068403 56.680902 
306.586212 -268.761475 87.891403 -112.672773 1.953286 104.772018 4.745787 -0.646819 19.906667 -3.497993 -40.062866 8.967767 -4.014457 25.760216 -13.524705 nan nan nan -12.411627 4.876409 -67.853331 10.737161 -7.199818 91.694337 5.460619 -15.724838 -21.775733 nan nan nan 1.829538 -21.542129 23.385061 3.859879 -9.587237 -32.373664 4.103774 -9.396480 20.769776 -22.367739 0.335717 -5.939812 25.228270 18.396362 -26.853915 7.767043 -48.518289 -8.719353 1.963081 1.400112 -0.529405 154.013909 -45.917991 -124.689892 -12.929005 -34.904399 6.643954 -13.095565 12.965367 -13.860697 -11.045878 -57.702967 6.924888 80.380708 -10.868016 75.904770 45.215792 42.553720 64.648593 
303.532227 -266.135895 88.497406 -114.096584 3.100092 104.999880 4.970365 0.185336 23.290401 1.280052 -39.718702 3.652798 -4.265130 26.388187 -6.978288 nan nan nan -12.082387 6.584060 -69.143369 11.390557 -6.130315 86.739144 5.643864 -16.046697 -20.905900 nan nan nan 2.166248 -21.824237 22.523921 4.619819 -8.950047 -31.996237 4.616610 -9.780458 20.760399 -23.566792 2.479233 -5.305693 24.127205 18.276700 -27.801127 9.717526 -48.366708 -7.883406 1.961704 3.961384 -3.216644 158.362100 -47.804064 -128.543653 1.107865 -34.800923 -1.828547 -13.957100 12.213366 -11.447167 -8.760591 -59.214356 7.217792 80.100393 -5.989943 84.354826 26.348280 55.530156 62.383708 
300.500916 -263.519440 88.994446 -115.560054 4.473081 105.146890 5.252792 0.828896 26.593516 5.701583 -38.527177 -1.510956 -3.727843 26.814122 -0.142643 nan nan nan -11.619217 8.352098 -70.159164 12.079325 -5.153345 81.499857 5.795183 -16.040485 -19.551353 nan nan nan 2.756832 -22.398910 21.972985 5.255930 -8.327235 -31.856912 5.145513 -10.117473 21.049521 -24.800537 4.698046 -4.684207 22.756566 18.326936 -29.281005 12.168947 -48.301419 -6.738849 0.749583 7.073742 -6.191205 161.910473 -48.465041 -132.012087 7.387638 -33.158313 -5.501529 -15.429508 11.834517 -9.421859 -5.188259 -60.279550 5.762126 80.030705 -2.046171 88.888957 12.717018 61.210054 54.952624 
297.564362 -260.618866 89.727509 -116.982076 7.841024 104.125874 8.476394 1.791785 31.500799 9.300774 -36.969264 -7.217133 -3.742490 26.687181 5.231351 nan nan nan -9.354359 12.054872 -69.064884 12.044199 -4.625983 75.050837 5.830824 -16.030623 -18.271713 nan nan nan 3.370907 -22.866774 23.702794 6.615753 -6.744424 -31.223248 6.390809 -10.328741 20.706053 -25.259494 8.491086 -3.616083 20.509582 16.766317 -31.840606 15.271512 -47.425110 -6.817539 -1.291804 7.630140 -10.380604 167.263921 -50.413757 -137.315085 11.908530 -31.492146 -7.852195 -16.829936 11.319149 -7.518567 -0.670498 -61.469045 4.336762 79.476416 3.516081 92.740541 -3.249466 65.288300 42.299349 
294.438416 -258.260834 90.093163 -118.024829 8.881313 103.947781 7.833845 1.723638 34.374353 11.865510 -35.384586 -9.807601 -2.321287 27.606145 9.375966 nan nan nan -9.114453 12.862511 -68.702024 12.928195 -3.510000 69.163122 6.084937 -15.373452 -16.870951 nan nan nan 3.953018 -23.134863 23.613331 7.189512 -6.365857 -31.038007 6.969606 -10.413158 20.721638 -26.563212 9.799889 -2.282373 19.586588 16.983035 -33.090261 16.851824 -47.007322 -7.104621 -2.212926 8.151158 -11.753451 169.825521 -51.623700 -138.675553 12.779478 -30.923330 -11.454337 -17.514289 11.128555 -6.239608 0.154090 -62.387143 4.187631 80.798149 6.215680 91.903572 -7.421987 65.007697 36.536263 
291.421936 -255.919296 90.314690 -119.675158 9.722430 103.803361 6.522671 1.965595 36.371907 12.121706 -34.338264 -8.852977 -2.695342 29.008351 7.386516 nan nan nan -8.940852 14.143979 -68.534235 13.054966 -2.191984 63.516379 6.930633 -14.564097 -15.484546 nan nan nan 3.996910 -22.809808 23.721626 8.368039 -5.988583 -28.721690 7.267276 -9.500684 18.549979 -26.417765 12.592341 -3.250623 18.802650 14.736671 -33.573869 20.754432 -45.497177 -8.267422 -3.858517 7.470009 -16.556877 178.944453 -53.696202 -146.508080 29.639558 -29.159873 -18.476583 -17.009146 11.064045 -4.984268 13.953771 -64.284900 -8.154745 72.004945 14.319870 85.265626 -88.669892 86.674377 -0.081962 
288.461060 -253.586746 90.444016 -120.792622 10.573532 103.614962 6.108873 2.421324 37.644486 10.746824 -33.566594 -6.372553 -2.374010 29.704111 5.487519 nan nan nan -8.537222 14.715542 -68.119634 14.507256 -0.566436 58.074062 7.574027 -14.172668 -14.392366 nan nan nan 4.331502 -22.480358 23.953128 9.021856 -5.565621 -28.677857 7.700294 -9.459579 18.777089 -27.147876 12.655092 -4.161318 17.889325 14.325964 -33.614034 21.403381 -44.813659 -8.120035 -3.783485 6.913236 -17.063336 -179.495466 -54.173249 -146.592019 29.328079 -26.851369 -22.627234 -16.596661 10.266467 -4.224747 14.078955 -64.656614 -8.438184 73.438221 16.490845 84.224552 -91.015981 82.003276 -1.745546 
285.507599 -251.191940 90.496338 -121.591506 10.909430 103.586963 5.509040 2.914053 38.095153 8.568083 -33.252936 -2.869317 -2.438725 30.308857 4.329404 nan nan nan -8.465117 14.741930 -67.418899 15.190329 0.504787 52.587823 7.609111 -13.526622 -13.313416 nan nan nan 4.300370 -21.771670 23.240143 9.621786 -5.782426 -27.855142 8.326912 -9.789703 18.568454 -28.096797 12.522451 -3.716392 17.245401 14.501247 -34.071910 19.938402 -46.193255 -6.924710 -1.925144 8.849968 -19.211855 -173.927511 -54.883973 -149.156291 34.430702 -25.671260 -26.066702 -15.385351 11.185900 -3.663271 12.709392 -66.474109 -7.988815 75.120245 17.933391 83.852493 -102.943729 80.680600 -11.332092 
282.548035 -248.850266 90.541458 -122.426567 11.006860 103.420530 5.030386 3.886774 37.607309 5.165571 -32.769809 2.709697 -3.428737 29.527903 3.068265 nan nan nan -8.162721 14.660071 -66.324916 15.244048 1.498334 47.439872 7.551991 -12.695143 -12.311791 nan nan nan 4.165440 -21.060286 22.740489 9.999178 -6.053293 -27.394145 8.912104 -10.187760 18.579154 -28.901979 13.225126 -2.488539 16.675092 14.631993 -35.224673 18.250503 -47.965138 -5.971457 -1.084436 10.841143 -21.418945 -168.348214 -55.069057 -152.716791 38.341322 -25.148757 -29.180311 -14.064271 12.482694 -3.324173 12.935913 -68.514449 -8.576724 76.494936 20.022160 84.715674 -113.299695 79.828732 -20.534796 
279.622986 -246.508240 90.593018 -123.222621 11.016839 103.124013 4.483709 4.700244 36.849852 1.411789 -31.901725 8.908976 -4.377021 27.676187 3.238142 nan nan nan -7.703051 14.529539 -64.797665 15.104783 2.486409 42.460057 7.573287 -11.938628 -11.279925 nan nan nan 4.161006 -20.464687 22.748549 10.135390 -6.167317 -27.317090 9.372369 -10.390855 18.545617 -29.653478 14.018308 -1.797800 16.157802 14.409864 -36.223876 16.238676 -49.268531 -5.045188 -1.082406 11.664463 -22.515085 -164.773255 -55.003995 -156.067745 39.277717 -25.292414 -30.339531 -12.445111 13.122405 -3.129874 14.521273 -70.272213 -9.683523 77.485885 23.116974 86.081070 -116.756943 79.348179 -23.877425 
